<?xml version="1.0" standalone="no"?><!DOCTYPE svg PUBLIC "-//W3C//DTD SVG 1.1//EN" "http://www.w3.org/Graphics/SVG/1.1/DTD/svg11.dtd"><svg class="icon" width="128px" height="128.00px" viewBox="0 0 1024 1024" version="1.1" xmlns="http://www.w3.org/2000/svg"><path d="M94.4 649.6c-3.2 0-8 0-11.2-1.6-16-6.4-25.6-24-19.2-41.6l65.6-180.8c6.4-16 24-25.6 41.6-19.2 16 6.4 25.6 24 19.2 41.6l-65.6 180.8c-4.8 12.8-17.6 20.8-30.4 20.8z m267.2 107.2h-4.8c-17.6-3.2-28.8-19.2-25.6-36.8l33.6-188.8c3.2-17.6 19.2-28.8 36.8-25.6 17.6 3.2 28.8 19.2 25.6 36.8l-33.6 188.8c-3.2 14.4-17.6 25.6-32 25.6z m300.8 0c-16 0-28.8-11.2-32-27.2l-33.6-188.8c-3.2-17.6 8-33.6 25.6-36.8 17.6-3.2 33.6 8 36.8 25.6L694.4 720c3.2 17.6-8 33.6-25.6 36.8h-6.4z m267.2-107.2c-12.8 0-25.6-8-30.4-20.8L833.6 448c-6.4-16 3.2-35.2 19.2-41.6 16-6.4 35.2 3.2 41.6 19.2L960 606.4c6.4 16-3.2 35.2-19.2 41.6-3.2 0-8 1.6-11.2 1.6zM512 576C128 576 8 312 3.2 300.8c-6.4-16 0-35.2 16-41.6 16-6.4 35.2 0 41.6 16C65.6 284.8 171.2 512 512 512c340.8 0 446.4-227.2 451.2-236.8 6.4-16 25.6-24 41.6-16 16 6.4 24 25.6 16 41.6C1016 312 896 576 512 576z" /></svg>