<?xml version="1.0" standalone="no"?><!DOCTYPE svg PUBLIC "-//W3C//DTD SVG 1.1//EN" "http://www.w3.org/Graphics/SVG/1.1/DTD/svg11.dtd"><svg t="1608355348894" class="icon" viewBox="0 0 1024 1024" version="1.1" xmlns="http://www.w3.org/2000/svg" p-id="3264" xmlns:xlink="http://www.w3.org/1999/xlink" width="200" height="200"><defs><style type="text/css"></style></defs><path d="M460.8 494.93333333H256c-18.77333333 0-34.13333333-15.36-34.13333333-34.13333333s15.36-34.13333333 34.13333333-34.13333333h204.8c18.77333333 0 34.13333333 15.36 34.13333333 34.13333333s-15.36 34.13333333-34.13333333 34.13333333z m-102.4 238.93333334c-18.77333333 0-34.13333333-15.36-34.13333333-34.13333334V460.8c0-18.77333333 15.36-34.13333333 34.13333333-34.13333333s34.13333333 15.36 34.13333333 34.13333333v238.93333333c0 18.77333333-15.36 34.13333333-34.13333333 34.13333334z m307.2 0c-13.65333333 0-25.6-8.53333333-30.72-20.48l-102.4-238.93333334c-6.82666667-17.06666667 0-37.54666667 17.06666667-44.37333333 17.06666667-6.82666667 37.54666667 0 44.37333333 18.77333333L665.6 614.4l71.68-165.54666667c6.82666667-17.06666667 27.30666667-25.6 44.37333333-18.77333333 17.06666667 6.82666667 25.6 27.30666667 17.06666667 44.37333333l-102.4 238.93333334C691.2 725.33333333 679.25333333 733.86666667 665.6 733.86666667z m204.8 221.86666666H153.6c-56.32 0-102.4-46.08-102.4-102.4V307.2c0-56.32 46.08-102.4 102.4-102.4h716.8c56.32 0 102.4 46.08 102.4 102.4v546.13333333c0 56.32-46.08 102.4-102.4 102.4zM153.6 273.06666667c-18.77333333 0-34.13333333 15.36-34.13333333 34.13333333v546.13333333c0 18.77333333 15.36 34.13333333 34.13333333 34.13333334h716.8c18.77333333 0 34.13333333-15.36 34.13333333-34.13333334V307.2c0-18.77333333-15.36-34.13333333-34.13333333-34.13333333H153.6z m290.13333333 0c-8.53333333 0-17.06666667-3.41333333-23.89333333-10.24l-170.66666667-170.66666667c-13.65333333-13.65333333-13.65333333-34.13333333 0-47.78666667 13.65333333-13.65333333 34.13333333-13.65333333 47.78666667 0l170.66666667 170.66666667c13.65333333 13.65333333 13.65333333 34.13333333 0 47.78666667-6.82666667 6.82666667-15.36 10.24-23.89333334 10.24z m136.53333334 0c-8.53333333 0-17.06666667-3.41333333-23.89333334-10.24-13.65333333-13.65333333-13.65333333-34.13333333 0-47.78666667l170.66666667-170.66666667c13.65333333-13.65333333 34.13333333-13.65333333 47.78666667 0 13.65333333 13.65333333 13.65333333 34.13333333 0 47.78666667l-170.66666667 170.66666667C597.33333333 269.65333333 588.8 273.06666667 580.26666667 273.06666667z" p-id="3265"></path></svg>