<?xml version="1.0" encoding="UTF-8"?>
<svg width="57px" height="46px" viewBox="0 0 57 46" version="1.1" xmlns="http://www.w3.org/2000/svg" xmlns:xlink="http://www.w3.org/1999/xlink">
    <title>“</title>
    <g id="页面-1" stroke="none" stroke-width="1" fill="none" fill-rule="evenodd">
        <g id="官网首页13" transform="translate(-384.000000, -2957.000000)" fill="#E3E8ED" fill-rule="nonzero">
            <g id="编组-70" transform="translate(12.000000, 2936.000000)">
                <g id="编组-66" transform="translate(292.000000, 0.000000)">
                    <path d="M97.560166,67 L97.560166,54.0207469 C97.7510373,44.6680498 100.804979,35.9515906 106.721992,27.8713693 L106.721992,27.8713693 L96.6058091,21 C91.7067773,25.0719225 87.7143845,30.2890733 84.6286307,36.6514523 C81.5428769,43.0138313 80,49.439834 80,55.9294606 L80,55.9294606 L80,67 L97.560166,67 Z M127.622407,67 L127.622407,54.0207469 C127.813278,44.6680498 130.86722,35.9515906 136.784232,27.8713693 L136.784232,27.8713693 L126.66805,21 C121.769018,25.0719225 117.776625,30.2890733 114.690871,36.6514523 C111.605118,43.0138313 110.062241,49.439834 110.062241,55.9294606 L110.062241,55.9294606 L110.062241,67 L127.622407,67 Z" id="“"></path>
                </g>
            </g>
        </g>
    </g>
</svg>