<svg width="512" height="512" viewBox="0 0 512 512" fill="none" xmlns="http://www.w3.org/2000/svg">
<g clip-path="url(#clip0_102_262)">
<path d="M255.779 177.996C236.433 177.996 220.735 193.694 220.735 213.04C220.735 216.578 221.288 220.115 222.283 223.321C238.865 224.095 256.442 233.823 266.502 246.426C280.652 241.893 290.933 228.627 290.933 212.93C290.933 193.694 275.235 177.996 255.779 177.996Z" fill="#D3D3D3"/>
<path d="M277.446 259.581C277.446 259.581 300.883 255.601 314.038 224.205C322.992 202.759 313.485 175.011 295.797 160.751C282.532 150.028 264.733 147.043 248.372 151.022C227.147 156.218 209.349 172.69 204.595 194.357C202.826 202.206 203.047 210.497 205.148 218.346" stroke="black" stroke-width="2.21096" stroke-miterlimit="10"/>
<path d="M38.6624 308.001C38.6624 308.001 47.8379 278.153 77.2437 265.108C77.2437 265.108 107.865 256.817 123.342 265.882" stroke="black" stroke-width="2.21096" stroke-miterlimit="10"/>
<path d="M77.6859 308.664C77.6859 308.664 81.9972 282.243 119.031 283.57C119.031 283.57 115.493 307.338 116.599 311.649L77.6859 308.664Z" fill="#D3D3D3"/>
<path d="M16 306.011C16 306.011 147.11 314.302 176.074 313.528C176.074 313.528 283.748 314.744 290.049 312.754" stroke="black" stroke-width="2.21096" stroke-miterlimit="10"/>
<path d="M16.4422 381.958C16.4422 381.958 43.0843 364.823 156.728 361.727L285.406 360.953" stroke="black" stroke-width="2.21096" stroke-miterlimit="10"/>
<path d="M123.674 402.63C123.674 402.63 125.222 385.937 140.809 375.656C140.809 375.656 153.522 365.707 167.009 362.169" stroke="black" stroke-width="2.21096" stroke-miterlimit="10"/>
<path d="M101.012 393.897C101.012 393.897 109.745 379.636 128.87 370.461L147.552 361.727" stroke="black" stroke-width="2.21096" stroke-miterlimit="10"/>
<path d="M132.076 337.407H212.665" stroke="black" stroke-width="2.21096" stroke-miterlimit="10"/>
<path d="M56.129 328.342H148.326" stroke="black" stroke-width="2.21096" stroke-miterlimit="10"/>
<path d="M304.752 261.129C301.767 269.862 298.893 281.469 299.667 291.75C299.667 291.75 302.872 313.528 301.656 320.051C300.44 326.573 300.44 368.581 300.44 368.581C300.44 368.581 298.45 405.726 301.656 409.374C304.862 413.022 310.169 424.298 327.967 420.65C345.765 417.002 347.423 416.559 351.403 407.715C355.493 398.872 357.041 372.119 356.267 366.923C355.493 361.617 354.277 344.703 354.277 344.703C354.277 344.703 361.131 349.125 366.769 351.999C372.407 354.873 403.14 356.089 412.426 345.145C412.426 345.145 413.642 348.019 411.21 360.511C411.21 360.511 409.994 390.802 411.983 398.54C413.973 406.168 415.189 413.132 424.918 416.338C424.918 416.338 438.625 419.212 444.706 418.77C450.786 418.328 463.278 413.132 463.72 405.836C463.72 405.836 469.8 317.287 458.856 291.419C458.856 291.419 443.932 240.456 400.597 233.16C400.597 233.16 364.89 223.984 324.208 240.456C315.143 244.104 307.958 251.621 304.752 261.129Z" fill="#D3D3D3"/>
<path d="M224.604 328.673L245.608 328.342" stroke="black" stroke-width="2.21096" stroke-miterlimit="10"/>
<path d="M116.488 311.649C116.488 311.649 112.066 211.935 199.068 217.904C199.068 217.904 257.105 224.648 274.13 254.496C274.13 254.496 291.596 283.901 290.049 312.865C290.049 312.865 285.627 340.723 285.295 358.19C285.295 358.19 285.295 386.048 288.169 402.741C289.386 409.816 294.25 415.785 300.993 418.328C313.485 423.082 338.027 422.529 341.233 405.504C342.67 397.545 345.876 377.425 343.775 360.843L342.559 346.14C342.559 346.14 346.981 348.572 352.84 350.562C358.81 352.552 386.226 354.984 394.959 349.346L401.26 346.14C401.26 346.14 398.828 363.275 398.828 369.576C398.828 375.878 397.612 395.776 400.044 401.746C406.567 417.996 425.028 421.534 440.615 416.78C451.228 413.574 452.223 400.198 452.776 390.912C453.771 374.772 454.544 358.743 453.66 342.492C451.781 308.222 447.912 269.199 418.506 245.873C393.08 225.753 353.946 225.864 324.65 236.808C316.138 240.014 307.737 243.109 299.224 246.205" stroke="black" stroke-width="2.21096" stroke-miterlimit="10"/>
<path d="M149.1 303.689C149.1 303.689 168.556 307.227 170.104 292.966" stroke="black" stroke-width="2.21096" stroke-miterlimit="10"/>
<path d="M208.354 271.52C208.354 271.52 228.584 272.294 227.81 256.817" stroke="black" stroke-width="2.21096" stroke-miterlimit="10"/>
<path d="M343.775 360.069L399.381 360.843" stroke="black" stroke-width="2.21096" stroke-miterlimit="10"/>
<path d="M234.885 360.511C232.011 373.003 228.252 387.374 231.9 400.087C236.433 416.006 259.427 420.76 273.356 416.449C273.356 416.449 286.511 411.695 288.833 405.725" stroke="black" stroke-width="2.21096" stroke-miterlimit="10"/>
<path d="M360.91 359.738C360.91 359.738 353.725 379.636 358.92 404.178C358.92 404.178 360.91 418.439 381.914 415.343C381.914 415.343 396.728 412.358 401.15 404.731" stroke="black" stroke-width="2.21096" stroke-miterlimit="10"/>
<path d="M450.675 308.443L495.889 306.011" stroke="black" stroke-width="2.21096" stroke-miterlimit="10"/>
<path d="M453.771 360.843L495.116 360.069" stroke="black" stroke-width="2.21096" stroke-miterlimit="10"/>
<path d="M198.626 313.197L187.902 298.052C187.902 298.052 186.355 288.876 193.761 285.56C193.761 285.56 197.852 281.691 205.258 285.781L224.494 303.911C224.494 303.911 224.715 310.765 220.182 313.086H198.626V313.197Z" fill="black"/>
<path d="M237.76 314.192L244.392 310.323" stroke="black" stroke-width="2.21096" stroke-miterlimit="10"/>
<path d="M345.655 168.821L359.252 169.263L346.428 185.845H359.473" stroke="black" stroke-width="2.21096" stroke-miterlimit="10"/>
<path d="M380.035 131.898L398.275 131.677L380.367 153.676L398.828 153.455" stroke="black" stroke-width="2.21096" stroke-miterlimit="10"/>
<path d="M416.737 90.5527H436.967L417.179 114.984H437.409" stroke="black" stroke-width="2.21096" stroke-miterlimit="10"/>
</g>
<defs>
<clipPath id="clip0_102_262">
<rect width="480" height="331.423" fill="white" transform="translate(16 90)"/>
</clipPath>
</defs>
</svg>
