<svg width="512" height="512" viewBox="0 0 512 512" fill="none" xmlns="http://www.w3.org/2000/svg">
<g clip-path="url(#clip0_102_261)">
<path d="M255.779 178.331C236.433 178.331 220.735 194.029 220.735 213.375C220.735 216.912 221.288 220.45 222.283 223.656C238.865 224.43 256.442 234.158 266.502 246.76C280.652 242.228 290.933 228.962 290.933 213.264C290.933 194.029 275.235 178.331 255.779 178.331Z" fill="#434343"/>
<path d="M277.446 259.915C277.446 259.915 300.883 255.936 314.038 224.54C322.992 203.094 313.485 175.346 295.797 161.085C282.532 150.362 264.733 147.377 248.372 151.357C227.147 156.553 209.349 173.025 204.595 194.692C202.826 202.541 203.048 210.832 205.148 218.681" stroke="#818181" stroke-width="2.21096" stroke-miterlimit="10"/>
<path d="M38.6623 308.336C38.6623 308.336 47.8378 278.488 77.2436 265.443C77.2436 265.443 107.865 257.152 123.342 266.217" stroke="#818181" stroke-width="2.21096" stroke-miterlimit="10"/>
<path d="M77.6859 308.999C77.6859 308.999 81.9973 282.578 119.031 283.905C119.031 283.905 115.493 307.673 116.599 311.984L77.6859 308.999Z" fill="#434343"/>
<path d="M16 306.346C16 306.346 147.11 314.637 176.074 313.863C176.074 313.863 283.748 315.079 290.049 313.089" stroke="#818181" stroke-width="2.21096" stroke-miterlimit="10"/>
<path d="M16.4423 382.292C16.4423 382.292 43.0844 365.157 156.728 362.062L285.406 361.288" stroke="#818181" stroke-width="2.21096" stroke-miterlimit="10"/>
<path d="M123.674 402.965C123.674 402.965 125.222 386.272 140.809 375.992C140.809 375.992 153.522 366.042 167.009 362.505" stroke="#818181" stroke-width="2.21096" stroke-miterlimit="10"/>
<path d="M101.011 394.232C101.011 394.232 109.745 379.971 128.87 370.796L147.552 362.062" stroke="#818181" stroke-width="2.21096" stroke-miterlimit="10"/>
<path d="M132.076 337.742H212.665" stroke="#818181" stroke-width="2.21096" stroke-miterlimit="10"/>
<path d="M56.129 328.677H148.326" stroke="#818181" stroke-width="2.21096" stroke-miterlimit="10"/>
<path d="M304.752 261.463C301.767 270.196 298.893 281.804 299.667 292.085C299.667 292.085 302.872 313.863 301.656 320.385C300.44 326.908 300.44 368.916 300.44 368.916C300.44 368.916 298.45 406.06 301.656 409.708C304.862 413.356 310.169 424.632 327.967 420.984C345.765 417.336 347.423 416.894 351.403 408.05C355.493 399.206 357.041 372.453 356.267 367.258C355.493 361.951 354.277 345.037 354.277 345.037C354.277 345.037 361.131 349.459 366.769 352.334C372.407 355.208 403.14 356.424 412.426 345.48C412.426 345.48 413.642 348.354 411.21 360.846C411.21 360.846 409.994 391.136 411.983 398.874C413.973 406.502 415.189 413.467 424.918 416.673C424.918 416.673 438.625 419.547 444.706 419.105C450.786 418.663 463.278 413.467 463.72 406.171C463.72 406.171 469.8 317.622 458.856 291.753C458.856 291.753 443.932 240.791 400.597 233.494C400.597 233.494 364.89 224.319 324.208 240.791C315.143 244.439 307.958 251.956 304.752 261.463Z" fill="#434343"/>
<path d="M224.604 329.008L245.608 328.677" stroke="#818181" stroke-width="2.21096" stroke-miterlimit="10"/>
<path d="M116.488 311.984C116.488 311.984 112.066 212.27 199.068 218.239C199.068 218.239 257.105 224.983 274.13 254.831C274.13 254.831 291.596 284.236 290.049 313.2C290.049 313.2 285.627 341.058 285.295 358.525C285.295 358.525 285.295 386.383 288.169 403.076C289.386 410.151 294.25 416.12 300.993 418.663C313.485 423.417 338.027 422.864 341.233 405.839C342.67 397.88 345.876 377.76 343.775 361.178L342.559 346.475C342.559 346.475 346.981 348.907 352.84 350.897C358.81 352.887 386.226 355.319 394.959 349.681L401.26 346.475C401.26 346.475 398.828 363.61 398.828 369.911C398.828 376.212 397.612 396.111 400.044 402.081C406.567 418.331 425.028 421.869 440.615 417.115C451.228 413.909 452.223 400.533 452.776 391.247C453.771 375.107 454.544 359.077 453.66 342.827C451.781 308.557 447.912 269.534 418.506 246.208C393.08 226.088 353.946 226.199 324.65 237.143C316.138 240.349 307.737 243.444 299.224 246.54" stroke="#818181" stroke-width="2.21096" stroke-miterlimit="10"/>
<path d="M149.1 304.024C149.1 304.024 168.556 307.562 170.104 293.301" stroke="#818181" stroke-width="2.21096" stroke-miterlimit="10"/>
<path d="M208.354 271.855C208.354 271.855 228.584 272.629 227.81 257.152" stroke="#818181" stroke-width="2.21096" stroke-miterlimit="10"/>
<path d="M343.775 360.404L399.381 361.178" stroke="#818181" stroke-width="2.21096" stroke-miterlimit="10"/>
<path d="M234.885 360.846C232.011 373.338 228.252 387.71 231.9 400.423C236.433 416.342 259.427 421.095 273.356 416.784C273.356 416.784 286.511 412.03 288.833 406.061" stroke="#818181" stroke-width="2.21096" stroke-miterlimit="10"/>
<path d="M360.91 360.072C360.91 360.072 353.725 379.971 358.92 404.513C358.92 404.513 360.91 418.773 381.914 415.678C381.914 415.678 396.728 412.693 401.15 405.065" stroke="#818181" stroke-width="2.21096" stroke-miterlimit="10"/>
<path d="M450.675 308.778L495.889 306.346" stroke="#818181" stroke-width="2.21096" stroke-miterlimit="10"/>
<path d="M453.771 361.178L495.116 360.404" stroke="#818181" stroke-width="2.21096" stroke-miterlimit="10"/>
<path d="M198.625 313.532L187.902 298.386C187.902 298.386 186.355 289.211 193.761 285.894C193.761 285.894 197.852 282.025 205.258 286.116L224.494 304.245C224.494 304.245 224.715 311.099 220.182 313.421H198.625V313.532Z" fill="#434343"/>
<path d="M237.76 314.526L244.393 310.657" stroke="#818181" stroke-width="2.21096" stroke-miterlimit="10"/>
<path d="M345.655 169.156L359.252 169.598L346.428 186.18H359.473" stroke="#818181" stroke-width="2.21096" stroke-miterlimit="10"/>
<path d="M380.035 132.233L398.276 132.011L380.367 154.011L398.828 153.789" stroke="#818181" stroke-width="2.21096" stroke-miterlimit="10"/>
<path d="M416.737 90.8875H436.967L417.179 115.319H437.41" stroke="#818181" stroke-width="2.21096" stroke-miterlimit="10"/>
</g>
<defs>
<clipPath id="clip0_102_261">
<rect width="480" height="331.423" fill="white" transform="translate(16 90.335)"/>
</clipPath>
</defs>
</svg>
